<svg xmlns="http://www.w3.org/2000/svg" xmlns:svg="http://www.w3.org/2000/svg" enable-background="new 0 0 1170 780" version="1.1" xml:space="preserve" viewBox="347.73 62.16 474.56 465.7">
 <g class="layer">
  <title>Layer 1</title>
  <ellipse cx="588.58" cy="290.29" fill="#e29c23" id="svg_47" rx="58.58" ry="90.79"/>
  <path d="m426.4,327.5c-0.72,0 -1.35,-0.51 -1.48,-1.25c-0.66,-3.95 -1.18,-8 -1.56,-12c-0.08,-0.82 0.52,-1.56 1.35,-1.63c0.82,-0.08 1.55,0.52 1.63,1.35c0.38,3.94 0.89,7.9 1.54,11.79c0.14,0.81 -0.41,1.59 -1.23,1.72c-0.09,0.02 -0.17,0.02 -0.25,0.02l0,0zm-2.25,-23.87c-0.81,0 -1.48,-0.65 -1.5,-1.46c-0.04,-1.38 -0.05,-2.78 -0.05,-4.16c0,-2.64 0.06,-5.31 0.18,-7.94c0.04,-0.83 0.72,-1.47 1.56,-1.43c0.83,0.04 1.47,0.74 1.43,1.56c-0.12,2.59 -0.18,5.22 -0.18,7.81c0,1.36 0.02,2.73 0.05,4.09c0.02,0.83 -0.63,1.51 -1.46,1.53c-0.01,0 -0.02,0 -0.04,0l0.01,0zm1.1,-23.95c-0.06,0 -0.11,0 -0.17,-0.01c-0.83,-0.1 -1.41,-0.84 -1.32,-1.67c0.47,-4 1.09,-8.02 1.83,-11.96c0.16,-0.82 0.94,-1.35 1.76,-1.2s1.35,0.94 1.19,1.76c-0.73,3.87 -1.34,7.83 -1.8,11.75c-0.09,0.77 -0.73,1.33 -1.49,1.33zm4.48,-23.56c-0.13,0 -0.26,-0.02 -0.39,-0.06c-0.8,-0.21 -1.28,-1.03 -1.06,-1.83c1.03,-3.89 2.21,-7.78 3.51,-11.58c0.27,-0.79 1.12,-1.2 1.9,-0.93s1.2,1.12 0.94,1.9c-1.28,3.74 -2.45,7.56 -3.46,11.38c-0.18,0.67 -0.79,1.11 -1.45,1.11l0.01,0l0,0.01z" fill="#2e2e32" id="svg_8"/>
  <path d="m593.08,468.49c-3.34,0 -6.72,-0.11 -10.03,-0.3c-0.83,-0.05 -1.46,-0.75 -1.41,-1.58c0.05,-0.82 0.76,-1.45 1.58,-1.41c3.94,0.23 7.94,0.32 11.9,0.27l0.02,0c0.82,0 1.49,0.66 1.5,1.48c0.01,0.83 -0.66,1.51 -1.48,1.52c-0.69,0.01 -1.39,0.01 -2.08,0.01l0,0l0,0.01zm14.03,-0.58c-0.77,0 -1.43,-0.6 -1.49,-1.37c-0.08,-0.83 0.54,-1.55 1.37,-1.62c3.94,-0.33 7.9,-0.79 11.79,-1.39c0.83,-0.13 1.59,0.43 1.72,1.25s-0.44,1.59 -1.26,1.71c-3.96,0.61 -8,1.08 -12.01,1.42c-0.04,0 -0.09,0 -0.12,0l0,0zm-35.93,-0.83c-0.06,0 -0.13,0 -0.19,-0.01c-3.99,-0.51 -8.01,-1.19 -11.95,-1.98c-0.81,-0.17 -1.33,-0.96 -1.17,-1.77c0.17,-0.81 0.96,-1.34 1.77,-1.17c3.87,0.79 7.82,1.44 11.74,1.94c0.82,0.11 1.4,0.86 1.29,1.68c-0.1,0.76 -0.74,1.31 -1.48,1.31l-0.01,0zm59.61,-2.82c-0.68,0 -1.29,-0.47 -1.46,-1.17c-0.18,-0.81 0.32,-1.61 1.13,-1.79c3.85,-0.88 7.71,-1.91 11.49,-3.06c0.79,-0.24 1.63,0.21 1.87,1c0.24,0.8 -0.21,1.63 -1,1.87c-3.84,1.17 -7.78,2.22 -11.69,3.11c-0.11,0.03 -0.23,0.04 -0.34,0.04l0,0zm-83.12,-1.95c-0.13,0 -0.27,-0.01 -0.4,-0.05c-3.87,-1.08 -7.76,-2.31 -11.54,-3.66c-0.78,-0.28 -1.18,-1.14 -0.91,-1.92c0.28,-0.78 1.14,-1.19 1.92,-0.91c3.72,1.33 7.53,2.54 11.33,3.6c0.8,0.22 1.27,1.05 1.05,1.84c-0.19,0.67 -0.79,1.1 -1.45,1.1l0,0zm106.05,-5.04c-0.6,0 -1.17,-0.36 -1.4,-0.96c-0.29,-0.77 0.09,-1.63 0.86,-1.93c3.68,-1.42 7.36,-2.99 10.94,-4.67c0.75,-0.35 1.64,-0.02 1.99,0.73c0.35,0.75 0.03,1.64 -0.72,1.99c-3.64,1.7 -7.39,3.31 -11.13,4.75c-0.17,0.07 -0.36,0.09 -0.54,0.09zm-128.63,-3.02c-0.21,0 -0.41,-0.04 -0.61,-0.12c-3.67,-1.63 -7.35,-3.39 -10.9,-5.27c-0.73,-0.38 -1.01,-1.3 -0.62,-2.02c0.38,-0.73 1.29,-1.02 2.02,-0.63c3.5,1.85 7.1,3.59 10.71,5.18c0.76,0.33 1.1,1.22 0.77,1.97c-0.25,0.56 -0.8,0.9 -1.38,0.9l0.01,-0.01zm150.33,-7.15c-0.52,0 -1.03,-0.28 -1.3,-0.77c-0.41,-0.73 -0.15,-1.64 0.57,-2.04c3.45,-1.93 6.86,-4 10.17,-6.17c0.69,-0.45 1.62,-0.26 2.07,0.43c0.46,0.7 0.26,1.63 -0.43,2.08c-3.36,2.2 -6.84,4.31 -10.34,6.27c-0.23,0.13 -0.49,0.19 -0.73,0.19l0,0.01l-0.01,0zm-171.54,-4.04c-0.27,0 -0.55,-0.08 -0.79,-0.23c-3.41,-2.13 -6.79,-4.39 -10.04,-6.76c-0.67,-0.49 -0.82,-1.43 -0.34,-2.1c0.49,-0.67 1.43,-0.82 2.1,-0.33c3.19,2.32 6.51,4.55 9.87,6.64c0.7,0.44 0.92,1.36 0.48,2.06c-0.29,0.46 -0.78,0.71 -1.28,0.71l0,0.01zm191.59,-9.12c-0.45,0 -0.9,-0.2 -1.2,-0.59c-0.5,-0.66 -0.37,-1.6 0.29,-2.1c3.14,-2.39 6.23,-4.93 9.19,-7.54c0.63,-0.55 1.58,-0.49 2.12,0.13c0.55,0.62 0.49,1.57 -0.13,2.12c-3.02,2.65 -6.16,5.24 -9.36,7.67c-0.27,0.21 -0.59,0.31 -0.91,0.31l0,0z" fill="#2e2e32" id="svg_9"/>
  <path d="m758.98,331.78c-0.1,0 -0.2,-0.01 -0.29,-0.03c-0.81,-0.15 -1.34,-0.94 -1.19,-1.75c0.45,-2.3 0.85,-4.64 1.2,-6.97c0.12,-0.82 0.89,-1.38 1.7,-1.26c0.82,0.13 1.39,0.89 1.26,1.71c-0.35,2.36 -0.76,4.75 -1.21,7.08c-0.15,0.72 -0.77,1.22 -1.47,1.22zm2.55,-18.95c-0.03,0 -0.08,0 -0.12,0c-0.82,-0.06 -1.44,-0.78 -1.38,-1.61c0.31,-3.93 0.48,-7.92 0.51,-11.88c0.01,-0.82 0.68,-1.49 1.5,-1.49l0.01,0c0.83,0.01 1.5,0.69 1.49,1.51c-0.03,4.03 -0.2,8.1 -0.51,12.09c-0.06,0.79 -0.72,1.39 -1.5,1.39l0,-0.01zm0.19,-23.97c-0.78,0 -1.45,-0.61 -1.49,-1.41c-0.25,-3.94 -0.64,-7.92 -1.16,-11.83c-0.11,-0.82 0.47,-1.57 1.29,-1.68c0.82,-0.11 1.58,0.46 1.68,1.29c0.53,3.97 0.93,8.03 1.18,12.04c0.05,0.83 -0.58,1.54 -1.41,1.59c-0.03,0 -0.06,0 -0.09,0l0,0zm-3.18,-23.77c-0.7,0 -1.32,-0.49 -1.47,-1.2c-0.8,-3.86 -1.75,-7.75 -2.82,-11.55c-0.23,-0.79 0.24,-1.62 1.03,-1.85c0.8,-0.22 1.63,0.24 1.85,1.04c1.09,3.86 2.06,7.82 2.88,11.75c0.17,0.81 -0.36,1.61 -1.17,1.78c-0.09,0.02 -0.2,0.03 -0.3,0.03zm-6.52,-23.07c-0.62,0 -1.19,-0.38 -1.41,-0.99c-1.35,-3.71 -2.84,-7.43 -4.44,-11.03c-0.34,-0.75 0,-1.65 0.76,-1.98c0.76,-0.33 1.64,0 1.98,0.76c1.63,3.67 3.15,7.45 4.52,11.22c0.28,0.78 -0.12,1.64 -0.9,1.92c-0.17,0.06 -0.34,0.09 -0.51,0.09l0,0.01z" fill="#2e2e32" id="svg_10"/>
  <path d="m682.15,155.89c-0.27,0 -0.54,-0.08 -0.79,-0.23c-1.48,-0.91 -2.99,-1.82 -4.5,-2.69c-0.72,-0.42 -0.97,-1.34 -0.55,-2.06c0.42,-0.71 1.33,-0.96 2.05,-0.54c1.54,0.89 3.08,1.82 4.59,2.75c0.7,0.44 0.92,1.36 0.48,2.07c-0.29,0.45 -0.78,0.71 -1.28,0.71l0,-0.01zm-165.64,-7.05c-0.54,0 -1.08,-0.31 -1.34,-0.82c-0.38,-0.74 -0.08,-1.64 0.65,-2.02c3.58,-1.82 7.28,-3.54 10.98,-5.1c0.76,-0.32 1.64,0.03 1.96,0.8c0.33,0.76 -0.03,1.64 -0.79,1.96c-3.64,1.54 -7.26,3.22 -10.78,5.02c-0.22,0.11 -0.45,0.16 -0.68,0.16l0,0zm150.5,-1.31c-0.22,0 -0.44,-0.06 -0.65,-0.15c-3.55,-1.73 -7.21,-3.36 -10.87,-4.83c-0.77,-0.31 -1.14,-1.18 -0.83,-1.95c0.31,-0.77 1.18,-1.14 1.95,-0.83c3.73,1.5 7.45,3.15 11.07,4.91c0.74,0.36 1.05,1.26 0.69,2c-0.26,0.54 -0.8,0.85 -1.36,0.85zm-128.41,-8.03c-0.63,0 -1.22,-0.39 -1.42,-1.01c-0.27,-0.78 0.15,-1.63 0.93,-1.9c3.8,-1.3 7.71,-2.47 11.59,-3.5c0.8,-0.21 1.62,0.28 1.83,1.07c0.21,0.81 -0.27,1.62 -1.07,1.84c-3.82,1 -7.64,2.15 -11.38,3.42c-0.16,0.06 -0.33,0.08 -0.49,0.08l0.01,0zm106.16,-0.92c-0.14,0 -0.3,-0.02 -0.46,-0.07c-3.76,-1.2 -7.61,-2.29 -11.44,-3.22c-0.81,-0.2 -1.3,-1.01 -1.11,-1.81c0.2,-0.81 1.01,-1.3 1.81,-1.1c3.91,0.95 7.83,2.05 11.65,3.28c0.79,0.26 1.23,1.1 0.97,1.89c-0.2,0.63 -0.79,1.04 -1.43,1.04l0.01,-0.01zm-82.98,-5.16c-0.71,0 -1.34,-0.51 -1.48,-1.23c-0.15,-0.81 0.39,-1.6 1.2,-1.75c3.95,-0.74 7.98,-1.34 11.97,-1.8c0.83,-0.09 1.57,0.5 1.66,1.32c0.1,0.83 -0.5,1.57 -1.32,1.66c-3.93,0.45 -7.88,1.05 -11.76,1.77c-0.09,0.02 -0.18,0.03 -0.27,0.03zm59.69,-0.51c-0.09,0 -0.16,-0.01 -0.25,-0.03c-3.89,-0.66 -7.85,-1.18 -11.78,-1.56c-0.83,-0.08 -1.43,-0.82 -1.35,-1.63c0.08,-0.83 0.82,-1.44 1.64,-1.35c4,0.38 8.03,0.92 12,1.59c0.81,0.14 1.36,0.91 1.23,1.73c-0.13,0.73 -0.76,1.25 -1.48,1.25l-0.01,0zm-35.87,-2.22c-0.8,0 -1.46,-0.63 -1.5,-1.44c-0.03,-0.83 0.61,-1.53 1.43,-1.56c4.01,-0.17 8.11,-0.21 12.11,-0.11c0.83,0.02 1.48,0.71 1.46,1.55c-0.02,0.83 -0.69,1.46 -1.54,1.46c-3.93,-0.11 -7.95,-0.07 -11.89,0.1c-0.02,0 -0.05,0 -0.07,0l0,0z" fill="#CCD2D6" id="svg_11"/>
  <g id="svg_12">
   <path d="m605.85,284.79l0,27.05c-0.05,7.86 -1.1,13.63 -3.15,17.31c-2.06,3.68 -5.24,5.52 -9.55,5.52l-0.11,0c-4.39,-0.03 -7.62,-1.92 -9.65,-5.67c-2.06,-3.79 -3.09,-9.75 -3.09,-17.92l0,-27.94c0.15,-7.31 1.22,-12.77 3.19,-16.38c1.99,-3.61 5.15,-5.4 9.51,-5.4l0.04,0c4.43,0.01 7.68,1.94 9.73,5.82c2.05,3.88 3.08,9.75 3.08,17.61z" fill="#1f1f23" id="svg_13"/>
   <path d="m685.48,265.13c-7.3,-20.54 -21.28,-37.93 -39.33,-49.59c-14.18,-9.16 -30.9,-14.75 -48.87,-15.51c-1.4,-0.07 -2.82,-0.1 -4.23,-0.1c-26.91,0 -51.28,10.82 -68.99,28.35c-17.96,17.78 -29.1,42.44 -29.1,69.71c0,23.78 8.45,45.58 22.52,62.55c14.04,16.93 33.64,29.07 56.01,33.59l0.01,0c6.32,1.3 12.84,1.95 19.55,1.95c1.42,0 2.84,-0.02 4.23,-0.08c8.05,-0.35 15.85,-1.66 23.29,-3.83c9.41,-2.74 18.21,-6.86 26.22,-12.12c26.7,-17.51 44.34,-47.72 44.34,-82.06c0,-11.52 -1.99,-22.6 -5.65,-32.86l0,0zm-54.32,42.87c0,14.76 -3.3,26.18 -9.95,34.19c-5.86,7.06 -13.83,11.03 -23.93,11.86c-1.34,0.11 -2.71,0.16 -4.12,0.16l-0.12,0c-12.11,-0.03 -21.49,-4.06 -28.14,-12.09c-6.65,-8.07 -9.98,-19.44 -9.98,-34.12l0,-19.97c0,-8.84 1.18,-16.48 3.57,-22.89c1.6,-4.31 3.73,-8.06 6.39,-11.29c6.62,-8.03 16.01,-12.03 28.12,-12.03l0.05,0c1.45,0 2.86,0.06 4.23,0.18c10.08,0.86 18.05,4.83 23.9,11.93c2.64,3.2 4.77,6.95 6.35,11.22c2.44,6.44 3.64,14.09 3.64,22.95l0,19.91l-0.01,-0.01z" fill="#1f1f23" id="svg_14"/>
  </g>
  <path d="m593.15,336.17l-0.11,0c-4.98,-0.04 -8.67,-2.2 -10.97,-6.45c-2.2,-4.05 -3.27,-10.14 -3.27,-18.63l0,-27.95c0.16,-7.55 1.29,-13.3 3.38,-17.11c2.26,-4.1 5.9,-6.18 10.82,-6.18c5.07,0.01 8.78,2.24 11.1,6.62c2.18,4.15 3.25,10.14 3.25,18.32l0,27.04c-0.05,8.22 -1.15,14.11 -3.35,18.05c-2.33,4.18 -5.98,6.29 -10.86,6.29l0.01,0zm-0.11,-73.31c-3.84,0 -6.51,1.51 -8.23,4.63c-1.85,3.38 -2.87,8.66 -3.01,15.69l0,27.91c0,7.86 0.98,13.65 2.9,17.2c1.77,3.26 4.5,4.86 8.35,4.89l0.1,0c3.75,0 6.45,-1.56 8.23,-4.76c1.92,-3.43 2.92,-9.01 2.97,-16.59l0,-27.03c0,-7.58 -0.98,-13.27 -2.9,-16.92c-1.78,-3.38 -4.53,-5.01 -8.41,-5.02l0,0z" fill="#e29c23" id="svg_15"/>
  <path d="m593.04,397.58c-6.69,0 -13.32,-0.66 -19.72,-1.95l-0.14,-0.03c-22.14,-4.47 -42.34,-16.58 -56.86,-34.1c-14.75,-17.8 -22.87,-40.35 -22.87,-63.51c0,-26.77 10.5,-51.91 29.55,-70.77c18.76,-18.56 43.63,-28.79 70.04,-28.79c1.58,0 2.99,0.03 4.31,0.1c17.66,0.75 34.82,6.19 49.61,15.75c18.44,11.91 32.62,29.79 39.93,50.35c3.8,10.67 5.73,21.9 5.73,33.36c0,33.68 -16.83,64.82 -45.01,83.31c-8.25,5.43 -17.21,9.57 -26.63,12.3c-7.66,2.24 -15.61,3.55 -23.64,3.89c-1.35,0.06 -2.79,0.09 -4.3,0.09l0,0zm-19.41,-4.95l0.16,0.03c6.24,1.27 12.72,1.92 19.26,1.92c1.46,0 2.86,-0.02 4.16,-0.08c7.79,-0.33 15.51,-1.61 22.94,-3.77c9.12,-2.66 17.81,-6.67 25.81,-11.93c27.34,-17.94 43.67,-48.14 43.67,-80.81c0,-11.11 -1.87,-22 -5.56,-32.36c-7.09,-19.93 -20.84,-37.27 -38.73,-48.83c-14.34,-9.27 -30.98,-14.56 -48.12,-15.28c-1.28,-0.06 -2.64,-0.09 -4.17,-0.09c-25.62,0 -49.75,9.91 -67.93,27.91c-18.48,18.3 -28.66,42.67 -28.66,68.64c0,22.46 7.87,44.34 22.18,61.59c14.05,16.95 33.58,28.69 55,33.05l-0.01,0.01z" fill="#2e2e32" id="svg_16"/>
  <path d="m593.16,355.7l-0.12,0c-12.52,-0.03 -22.38,-4.29 -29.29,-12.64c-6.86,-8.3 -10.33,-20.1 -10.33,-35.06l0,-19.98c0,-9 1.23,-16.87 3.65,-23.41c1.65,-4.43 3.88,-8.38 6.64,-11.72c6.89,-8.35 16.74,-12.58 29.29,-12.58c1.49,0 2.95,0.06 4.4,0.18c10.46,0.9 18.85,5.09 24.93,12.47c2.76,3.35 4.98,7.26 6.61,11.65c2.47,6.54 3.72,14.44 3.72,23.48l0,19.91c0,15.07 -3.46,26.9 -10.29,35.14c-6.11,7.37 -14.51,11.54 -24.97,12.39c-1.33,0.12 -2.77,0.17 -4.24,0.17zm-0.12,-112.39c-11.65,0 -20.72,3.87 -27.02,11.49c-2.54,3.08 -4.61,6.74 -6.14,10.86c-2.29,6.2 -3.47,13.73 -3.47,22.37l0,19.97c0,14.25 3.25,25.4 9.65,33.15c6.32,7.63 15.4,11.52 26.99,11.55l0.11,0c1.39,0 2.73,-0.06 3.99,-0.16c9.63,-0.79 17.34,-4.6 22.91,-11.32c6.37,-7.69 9.6,-18.87 9.6,-33.23l0,-19.91c0,-8.67 -1.19,-16.21 -3.53,-22.42c-1.51,-4.08 -3.57,-7.71 -6.11,-10.79c-5.54,-6.73 -13.24,-10.56 -22.87,-11.39c-1.35,-0.11 -2.74,-0.17 -4.1,-0.17l-0.01,0z" fill="#e29c23" id="svg_17"/>
  <g id="svg_18">
   <path d="m518.03,169.16c0,21.77 -11.18,40.93 -28.11,52.03c-5.08,3.34 -10.66,5.94 -16.63,7.68c-4.72,1.38 -9.66,2.21 -14.77,2.43c-0.89,0.04 -1.78,0.06 -2.68,0.06c-4.25,0 -8.39,-0.42 -12.4,-1.24c-14.18,-2.87 -26.62,-10.57 -35.51,-21.31c-8.93,-10.76 -14.29,-24.58 -14.29,-39.66c0,-17.29 7.06,-32.93 18.45,-44.2c11.24,-11.12 26.69,-17.98 43.75,-17.98c0.9,0 1.79,0.02 2.68,0.06c11.4,0.48 22,4.03 31,9.84c11.44,7.39 20.3,18.42 24.93,31.44c2.33,6.51 3.59,13.53 3.59,20.84l-0.01,0.01z" fill="#1f1f23" id="svg_19"/>
  </g>
  <path d="m485.82,152.74c0,5.17 -4.19,9.36 -9.37,9.36c-5.17,0 -9.37,-4.19 -9.37,-9.36s4.2,-9.37 9.37,-9.37c5.18,0 9.37,4.19 9.37,9.37z" fill="#2e2e32" id="svg_20"/>
  <path d="m444.59,152.74c0,5.17 -4.2,9.36 -9.37,9.36s-9.37,-4.19 -9.37,-9.36s4.2,-9.37 9.37,-9.37s9.37,4.19 9.37,9.37z" fill="#2e2e32" id="svg_21"/>
  <path d="m456.64,196.88c-19.87,0 -22.88,-16.84 -22.9,-17.01c-0.13,-0.81 0.42,-1.59 1.24,-1.72c0.81,-0.14 1.58,0.41 1.72,1.23c0.11,0.62 2.69,14.51 19.95,14.51c7.31,0 12.89,-2.45 16.58,-7.29c2.74,-3.6 3.36,-7.18 3.36,-7.22c0.14,-0.81 0.91,-1.37 1.73,-1.23c0.81,0.13 1.37,0.9 1.23,1.72c-0.03,0.17 -3.03,17.01 -22.91,17.01z" fill="#2e2e32" id="svg_22"/>
  <g id="svg_23">
   <path d="m506.79,389.85c0,21.77 -11.18,40.93 -28.11,52.03c-5.08,3.34 -10.66,5.94 -16.63,7.68c-4.72,1.38 -9.67,2.21 -14.77,2.43c-0.89,0.04 -1.78,0.06 -2.68,0.06c-4.25,0 -8.39,-0.42 -12.4,-1.24c-14.18,-2.87 -26.62,-10.57 -35.52,-21.31c-8.92,-10.76 -14.28,-24.58 -14.28,-39.66c0,-17.3 7.06,-32.93 18.45,-44.21c11.24,-11.11 26.69,-17.97 43.75,-17.97c0.9,0 1.79,0.02 2.68,0.06c11.4,0.48 22,4.02 31,9.83c11.44,7.39 20.3,18.42 24.93,31.45c2.33,6.51 3.59,13.53 3.59,20.83l-0.01,0.02z" fill="#1f1f23" id="svg_24"/>
  </g>
  <path d="m474.57,373.43c0,5.17 -4.19,9.36 -9.36,9.36c-5.17,0 -9.37,-4.19 -9.37,-9.36c0,-5.18 4.19,-9.37 9.37,-9.37c5.17,0 9.36,4.19 9.36,9.37z" fill="#2e2e32" id="svg_25"/>
  <path d="m433.35,373.43c0,5.17 -4.2,9.36 -9.37,9.36c-5.18,0 -9.37,-4.19 -9.37,-9.36c0,-5.18 4.2,-9.37 9.37,-9.37c5.16,0 9.37,4.19 9.37,9.37z" fill="#2e2e32" id="svg_26"/>
  <path d="m462.07,400.31c2.56,0 4.35,2.52 3.51,4.94c-2.08,6.04 -7.38,15.47 -20.18,15.47s-18.11,-9.44 -20.18,-15.47c-0.83,-2.42 0.95,-4.94 3.51,-4.94l33.34,0z" fill="#2e2e32" id="svg_27"/>
  <g id="svg_28">
   <path d="m787.61,380.04c0,18.31 -9.4,34.41 -23.63,43.75c-4.27,2.8 -8.97,5 -13.98,6.46c-3.97,1.16 -8.12,1.86 -12.41,2.04c-0.75,0.04 -1.5,0.05 -2.26,0.05c-3.58,0 -7.05,-0.35 -10.42,-1.04c-11.92,-2.41 -22.38,-8.88 -29.86,-17.91c-7.5,-9.05 -12.01,-20.67 -12.01,-33.35c0,-14.53 5.94,-27.68 15.52,-37.16c9.44,-9.34 22.43,-15.11 36.77,-15.11c0.76,0 1.51,0.02 2.26,0.05c9.58,0.41 18.49,3.38 26.05,8.27c9.61,6.22 17.07,15.49 20.96,26.44c1.96,5.47 3.01,11.37 3.01,17.51l0,0z" fill="#1f1f23" id="svg_29"/>
  </g>
  <path d="m760.53,366.24c0,4.35 -3.53,7.88 -7.88,7.88c-4.35,0 -7.87,-3.53 -7.87,-7.88c0,-4.35 3.52,-7.87 7.87,-7.87c4.35,0 7.88,3.52 7.88,7.87z" fill="#2e2e32" id="svg_30"/>
  <path d="m725.87,366.24c0,4.35 -3.52,7.88 -7.87,7.88s-7.88,-3.53 -7.88,-7.88c0,-4.35 3.52,-7.87 7.88,-7.87s7.87,3.52 7.87,7.87z" fill="#2e2e32" id="svg_31"/>
  <path d="m754.01,403.59c-0.72,0 -1.35,-0.52 -1.48,-1.25c-0.08,-0.5 -2.23,-12 -16.53,-12s-16.45,11.5 -16.52,11.99c-0.14,0.82 -0.91,1.37 -1.73,1.24c-0.82,-0.13 -1.37,-0.9 -1.24,-1.73c0.03,-0.14 2.59,-14.5 19.49,-14.5c16.91,0 19.48,14.36 19.5,14.5c0.13,0.82 -0.42,1.59 -1.24,1.73c-0.09,0.01 -0.16,0.02 -0.25,0.02z" fill="#2e2e32" id="svg_32"/>
  <g id="svg_33">
   <path d="m773.54,183c0,17.12 -8.79,32.19 -22.11,40.93c-4,2.62 -8.38,4.67 -13.08,6.04c-3.72,1.08 -7.6,1.74 -11.62,1.91c-0.7,0.03 -1.4,0.04 -2.11,0.04c-3.34,0 -6.59,-0.33 -9.75,-0.98c-11.16,-2.25 -20.94,-8.31 -27.94,-16.75c-7.02,-8.46 -11.23,-19.33 -11.23,-31.19c0,-13.6 5.56,-25.91 14.51,-34.78c8.84,-8.74 20.99,-14.14 34.41,-14.14c0.71,0 1.42,0.02 2.11,0.05c8.97,0.38 17.31,3.17 24.38,7.74c9,5.82 15.97,14.49 19.62,24.74c1.82,5.12 2.82,10.64 2.82,16.39l-0.01,0z" fill="#1f1f23" id="svg_34"/>
  </g>
  <path d="m748.21,170.08c0,4.07 -3.3,7.37 -7.37,7.37s-7.37,-3.3 -7.37,-7.37s3.3,-7.37 7.37,-7.37c4.07,0 7.37,3.3 7.37,7.37z" fill="#2e2e32" id="svg_35"/>
  <path d="m715.77,170.08c0,4.07 -3.29,7.37 -7.37,7.37c-4.07,0 -7.36,-3.3 -7.36,-7.37s3.3,-7.37 7.36,-7.37c4.07,0 7.37,3.3 7.37,7.37z" fill="#2e2e32" id="svg_36"/>
  <path d="m742.58,196.88l-34.17,0c-0.83,0 -1.5,-0.66 -1.5,-1.5s0.67,-1.5 1.5,-1.5l34.17,0c0.83,0 1.5,0.67 1.5,1.5s-0.67,1.5 -1.5,1.5z" fill="#2e2e32" id="svg_37"/>
  <path d="m455.84,232.86c-4.28,0 -8.52,-0.42 -12.6,-1.25l-0.1,-0.02c-14.17,-2.86 -27.09,-10.6 -36.37,-21.81c-9.44,-11.38 -14.63,-25.81 -14.63,-40.62c0,-17.13 6.71,-33.21 18.9,-45.27c12,-11.87 27.91,-18.41 44.8,-18.41c0.98,0 1.89,0.02 2.75,0.06c11.3,0.47 22.28,3.96 31.74,10.07c11.79,7.62 20.86,19.06 25.53,32.2c2.44,6.83 3.67,14.01 3.67,21.35c0,21.54 -10.76,41.46 -28.79,53.28c-5.28,3.47 -11.01,6.12 -17.03,7.87c-4.91,1.44 -10,2.28 -15.13,2.5c-0.87,0.03 -1.8,0.06 -2.75,0.06l0.01,-0.01zm-12.25,-4.24l0.15,0.03c3.92,0.81 7.99,1.21 12.1,1.21c0.91,0 1.79,-0.02 2.62,-0.05c4.89,-0.22 9.74,-1.01 14.42,-2.37c5.74,-1.67 11.19,-4.19 16.23,-7.5c17.18,-11.27 27.44,-30.25 27.44,-50.78c0,-7 -1.18,-13.84 -3.5,-20.34c-4.45,-12.53 -13.09,-23.42 -24.33,-30.69c-9.02,-5.82 -19.48,-9.14 -30.25,-9.6c-0.83,-0.04 -1.68,-0.06 -2.62,-0.06c-16.09,0 -31.26,6.23 -42.69,17.55c-11.61,11.5 -18.01,26.82 -18.01,43.14c0,14.12 4.95,27.87 13.94,38.71c8.82,10.64 21.07,18.01 34.51,20.76l-0.01,-0.01z" fill="#2e2e32" id="svg_38"/>
  <path d="m444.59,453.55c-4.28,0 -8.52,-0.42 -12.6,-1.25l-0.1,-0.02c-14.17,-2.86 -27.09,-10.6 -36.37,-21.81c-9.44,-11.38 -14.63,-25.8 -14.63,-40.62c0,-17.12 6.71,-33.2 18.9,-45.27c12,-11.87 27.91,-18.41 44.8,-18.41c0.97,0 1.89,0.02 2.75,0.07c11.3,0.47 22.28,3.95 31.74,10.07c11.79,7.62 20.86,19.06 25.53,32.2c2.44,6.82 3.67,14 3.67,21.34c0,21.55 -10.76,41.47 -28.79,53.29c-5.28,3.48 -11.01,6.12 -17.03,7.87c-4.91,1.43 -10,2.27 -15.13,2.49c-0.87,0.05 -1.79,0.06 -2.75,0.06l0.01,-0.01zm-12.25,-4.24l0.15,0.03c3.92,0.8 7.99,1.21 12.1,1.21c0.91,0 1.79,-0.02 2.62,-0.06c4.89,-0.21 9.74,-1 14.42,-2.37c5.74,-1.67 11.19,-4.19 16.23,-7.49c17.18,-11.27 27.44,-30.26 27.44,-50.79c0,-6.99 -1.18,-13.83 -3.5,-20.33c-4.45,-12.53 -13.1,-23.42 -24.33,-30.69c-9.02,-5.82 -19.48,-9.14 -30.25,-9.6c-0.82,-0.04 -1.7,-0.06 -2.62,-0.06c-16.1,0 -31.26,6.23 -42.69,17.55c-11.61,11.5 -18.01,26.82 -18.01,43.14c0,14.12 4.95,27.86 13.94,38.71c8.82,10.64 21.07,18 34.51,20.75l-0.01,0z" fill="#2e2e32" id="svg_39"/>
  <path d="m735.33,433.83c-3.61,0 -7.19,-0.35 -10.63,-1.05l-0.1,-0.02c-11.96,-2.42 -22.87,-8.95 -30.71,-18.42c-7.97,-9.61 -12.36,-21.79 -12.36,-34.3c0,-14.46 5.67,-28.04 15.97,-38.22c10.13,-10.03 23.56,-15.55 37.83,-15.55c0.83,0 1.59,0.02 2.33,0.06c9.53,0.4 18.8,3.34 26.79,8.5c9.96,6.44 17.62,16.09 21.56,27.19c2.05,5.76 3.1,11.83 3.1,18.02c0,18.19 -9.09,35.02 -24.32,45c-4.45,2.93 -9.29,5.17 -14.38,6.65c-4.14,1.21 -8.44,1.91 -12.77,2.1c-0.74,0.03 -1.51,0.05 -2.32,0.05l0,-0.01l0.01,0zm-10.28,-4.04l0.15,0.03c3.27,0.67 6.68,1.01 10.12,1.01c0.75,0 1.49,-0.01 2.19,-0.04c4.09,-0.18 8.15,-0.85 12.06,-1.99c4.8,-1.39 9.37,-3.5 13.57,-6.27c14.38,-9.43 22.97,-25.31 22.97,-42.49c0,-5.85 -0.99,-11.57 -2.93,-17.01c-3.72,-10.48 -10.95,-19.6 -20.36,-25.68c-7.54,-4.87 -16.29,-7.65 -25.3,-8.03c-0.7,-0.03 -1.42,-0.05 -2.2,-0.05c-13.47,0 -26.15,5.22 -35.72,14.68c-9.72,9.62 -15.07,22.44 -15.07,36.1c0,11.81 4.14,23.31 11.66,32.38c7.38,8.9 17.62,15.06 28.85,17.36l0.01,0z" fill="#2e2e32" id="svg_40"/>
  <path d="m724.62,233.42c-3.38,0 -6.73,-0.33 -9.96,-0.99l-0.1,-0.02c-11.21,-2.26 -21.44,-8.39 -28.79,-17.26c-7.47,-9.01 -11.58,-20.43 -11.58,-32.16c0,-13.55 5.32,-26.28 14.96,-35.83c9.5,-9.4 22.1,-14.58 35.47,-14.58c0.78,0 1.5,0.02 2.18,0.05c8.95,0.38 17.63,3.14 25.12,7.98c9.34,6.03 16.52,15.08 20.21,25.49c1.93,5.4 2.91,11.08 2.91,16.89c0,17.06 -8.52,32.82 -22.79,42.19c-4.18,2.74 -8.72,4.84 -13.49,6.23c-3.88,1.13 -7.9,1.79 -11.97,1.97c-0.69,0.03 -1.42,0.04 -2.17,0.04zm-9.61,-3.98l0.15,0.03c3.06,0.63 6.24,0.95 9.46,0.95c0.7,0 1.38,-0.01 2.04,-0.04c3.82,-0.17 7.61,-0.79 11.26,-1.86c4.48,-1.3 8.75,-3.27 12.67,-5.85c13.43,-8.81 21.44,-23.64 21.44,-39.68c0,-5.46 -0.91,-10.81 -2.73,-15.88c-3.47,-9.79 -10.23,-18.31 -19.01,-23.98c-7.04,-4.55 -15.22,-7.15 -23.63,-7.5c-0.65,-0.03 -1.32,-0.05 -2.05,-0.05c-12.58,0 -24.42,4.87 -33.36,13.71c-9.07,8.98 -14.07,20.95 -14.07,33.7c0,11.03 3.87,21.77 10.89,30.24c6.89,8.3 16.45,14.05 26.93,16.21l0.01,0z" fill="#2e2e32" id="svg_41"/>
  <path d="m724.62,305.86c4.33,0 7.85,-3.51 7.85,-7.85c0,-4.33 -3.52,-7.84 -7.85,-7.84c-4.33,0 -7.85,3.51 -7.85,7.84c0,4.34 3.52,7.85 7.85,7.85z" enable-background="new" fill="#CCD2D6" id="svg_42" opacity="0.5"/>
  <path d="m424.1,284.43c6.87,0 12.44,-5.57 12.44,-12.44s-5.57,-12.44 -12.44,-12.44c-6.87,0 -12.44,5.57 -12.44,12.44s5.57,12.44 12.44,12.44z" fill="#e29c23" id="svg_43"/>
  <path d="m621.62,464.36l11.65,-11.66c1.61,-1.61 1.61,-4.2 0,-5.81c-1.61,-1.61 -4.21,-1.61 -5.81,0l-11.65,11.65l-11.66,-11.65c-1.61,-1.61 -4.21,-1.61 -5.81,0c-1.6,1.61 -1.6,4.2 0,5.81l11.66,11.65l-11.66,11.66c-1.6,1.61 -1.6,4.2 0,5.81c0.8,0.81 1.86,1.2 2.91,1.2s2.1,-0.39 2.9,-1.2l11.65,-11.65l11.66,11.65c0.8,0.81 1.85,1.2 2.9,1.2s2.11,-0.39 2.91,-1.2c1.6,-1.61 1.6,-4.2 0,-5.81l-11.65,-11.65z" fill="#e29c23" id="svg_44"/>
  <path d="m567.03,169.82l8.22,-8.22c1.13,-1.13 1.13,-2.96 0,-4.09c-1.13,-1.13 -2.97,-1.13 -4.11,0l-8.21,8.21l-8.22,-8.21c-1.13,-1.13 -2.96,-1.13 -4.1,0c-1.13,1.13 -1.13,2.96 0,4.09l8.22,8.22l-8.22,8.21c-1.13,1.13 -1.13,2.97 0,4.1c0.57,0.56 1.31,0.85 2.05,0.85s1.49,-0.29 2.05,-0.85l8.22,-8.22l8.21,8.22c0.57,0.56 1.31,0.85 2.05,0.85s1.49,-0.29 2.05,-0.85c1.13,-1.13 1.13,-2.97 0,-4.1l-8.21,-8.21z" enable-background="new" fill="#e29c23" id="svg_45"/>
  <path d="m783.04,435.18l-76.94,0c-2.52,0 -4.99,-0.2 -7.4,-0.59c-22.24,-3.54 -39.23,-22.8 -39.23,-46.04c0,-12.88 5.22,-24.54 13.65,-32.97c6.86,-6.85 15.84,-11.58 25.87,-13.12c0.71,-0.68 1.43,-1.35 2.17,-1.99c0.1,-0.09 0.21,-0.18 0.32,-0.27c0.36,-0.31 0.72,-0.61 1.09,-0.9c8.96,-7.21 20.35,-11.53 32.75,-11.53c0.38,0 0.75,0.01 1.12,0.01c0.38,0.01 0.76,0.03 1.14,0.04c9.58,0.41 18.49,3.39 26.05,8.27c1.88,1.22 3.68,2.55 5.38,3.99c0.71,0.6 1.39,1.21 2.06,1.85l4.4,0c12.88,0 24.54,-5.22 32.98,-13.66c8.43,-8.44 13.65,-20.09 13.65,-32.97c0,-25.75 -20.87,-46.63 -46.63,-46.63l-34.14,0c-16.97,0 -31.83,-9.07 -39.98,-22.63c-0.68,-0.37 -1.35,-0.75 -2.01,-1.15c-0.59,-0.35 -1.17,-0.72 -1.74,-1.1c-1.72,-1.14 -3.36,-2.39 -4.92,-3.73c-0.53,-0.46 -1.05,-0.93 -1.56,-1.41c-1.48,-1.4 -2.88,-2.88 -4.18,-4.46c-0.88,-1.05 -1.72,-2.15 -2.5,-3.28c-1.58,-2.26 -2.96,-4.66 -4.14,-7.18c-1.48,-3.15 -2.63,-6.48 -3.41,-9.95c-0.78,-3.47 -1.19,-7.08 -1.19,-10.78c0,-2.13 0.13,-4.22 0.4,-6.28c0.05,-0.41 0.11,-0.82 0.17,-1.22c0.19,-1.23 0.42,-2.43 0.7,-3.62c0.09,-0.4 0.19,-0.8 0.29,-1.19c0.41,-1.57 0.89,-3.11 1.45,-4.62c0.56,-1.51 1.18,-2.98 1.88,-4.41c0.35,-0.72 0.71,-1.42 1.1,-2.12c0.19,-0.35 0.38,-0.69 0.58,-1.04c2.19,-3.77 4.87,-7.22 7.95,-10.27c8.83,-8.75 20.99,-14.14 34.4,-14.14c0.71,0 1.42,0.01 2.12,0.05c2.15,0.09 4.26,0.32 6.33,0.68c0.19,0.03 0.39,0.07 0.58,0.1c1.88,0.35 3.72,0.81 5.52,1.37c1.48,0.46 2.93,0.99 4.35,1.58c0.47,0.2 0.94,0.41 1.4,0.62c2.15,0.98 4.23,2.11 6.2,3.38c5.48,3.55 10.21,8.16 13.89,13.54l10.47,0c12.87,0 24.53,-5.22 32.97,-13.65c8.44,-8.44 13.66,-20.1 13.66,-32.97c0,-25.76 -20.88,-46.63 -46.63,-46.63l-381.12,0c-12.88,0 -24.53,5.22 -32.97,13.65c-8.44,8.44 -13.66,20.1 -13.66,32.98c0,25.75 20.88,46.62 46.63,46.62l0.81,0c1.17,-5.18 2.99,-10.13 5.37,-14.74c1.63,-3.14 3.51,-6.13 5.63,-8.93c1.81,-2.41 3.79,-4.67 5.93,-6.79c8.07,-7.99 18.33,-13.78 29.79,-16.4c1,-0.23 2,-0.44 3.02,-0.62c1.01,-0.18 2.04,-0.33 3.07,-0.46c0.51,-0.07 1.03,-0.12 1.55,-0.18c2.08,-0.21 4.18,-0.31 6.32,-0.31c0.89,0 1.79,0.01 2.68,0.06c2.14,0.09 4.25,0.29 6.32,0.59c8.3,1.2 16.08,4.04 22.97,8.18c0.57,0.35 1.14,0.7 1.71,1.06c5,3.24 9.51,7.17 13.39,11.66c4.99,5.77 8.94,12.46 11.54,19.79c2.32,6.51 3.58,13.53 3.58,20.84c0,2.97 -0.21,5.88 -0.61,8.74c4.27,7.04 6.72,15.31 6.72,24.14c0,12.88 -5.22,24.54 -13.65,32.97c-8.44,8.44 -20.1,13.66 -32.97,13.66l-83.17,0c-12.88,0 -24.53,5.22 -32.97,13.66c-8.44,8.44 -13.66,20.09 -13.66,32.97c0,25.75 20.88,46.63 46.63,46.63l10.6,0c10.76,-8.91 24.57,-14.26 39.64,-14.26c0.9,0 1.8,0.02 2.68,0.06c3.73,0.16 7.37,0.65 10.9,1.43c1.01,0.23 2.01,0.48 3.01,0.75c0.83,0.23 1.67,0.47 2.49,0.74c1.3,0.42 2.58,0.88 3.84,1.38c2.89,1.14 5.67,2.5 8.32,4.05c0.46,0.27 0.92,0.54 1.38,0.82c0.35,0.22 0.71,0.44 1.06,0.67c0.48,0.31 0.95,0.64 1.43,0.96c1.72,1.18 3.38,2.44 4.97,3.78c1.18,1 2.32,2.03 3.42,3.1c0.03,0.04 0.07,0.07 0.1,0.1c6.65,6.54 11.83,14.55 15.01,23.5c0.84,2.35 1.54,4.77 2.09,7.24c0.23,1.02 0.43,2.05 0.61,3.1c0.2,1.18 0.37,2.38 0.51,3.58c0.2,1.83 0.32,3.68 0.36,5.55c0.01,0.46 0.02,0.91 0.02,1.37c0,4.76 -0.54,9.4 -1.55,13.86c-0.58,2.54 -1.32,5.03 -2.2,7.45c-0.44,1.21 -0.91,2.4 -1.43,3.57c-4.86,11.13 -12.89,20.56 -22.94,27.16c-3.17,2.08 -6.54,3.88 -10.08,5.37c-2.12,0.88 -4.31,1.66 -6.55,2.31c-4.72,1.38 -9.66,2.21 -14.77,2.43c-0.88,0.04 -1.78,0.06 -2.68,0.06c-4.25,0 -8.39,-0.42 -12.4,-1.25c-1.54,-0.31 -3.04,-0.68 -4.53,-1.1c-1.33,-0.38 -2.64,-0.79 -3.93,-1.25c-8.16,-2.9 -15.53,-7.47 -21.72,-13.27l-14.88,0c-9.92,1.58 -18.79,6.28 -25.58,13.07c-8.44,8.44 -13.66,20.09 -13.66,32.97c0,25.75 20.88,46.63 46.63,46.63l381.13,0c12.87,0 24.53,-5.22 32.97,-13.66c8.44,-8.44 13.66,-20.1 13.66,-32.97c0,-23.24 -17,-42.5 -39.24,-46.04l-0.01,-0.01zm-358.94,-150.75c-6.87,0 -12.44,-5.57 -12.44,-12.44s5.57,-12.44 12.44,-12.44s12.44,5.57 12.44,12.44s-5.57,12.44 -12.44,12.44zm126.52,-122.83c-1.13,-1.13 -1.13,-2.96 0,-4.1c1.13,-1.12 2.97,-1.12 4.1,0l8.22,8.22l8.21,-8.22c1.13,-1.12 2.97,-1.12 4.1,0c1.13,1.14 1.13,2.97 0,4.1l-8.22,8.22l8.22,8.21c1.13,1.13 1.13,2.97 0,4.1c-0.57,0.57 -1.31,0.85 -2.05,0.85s-1.48,-0.28 -2.05,-0.85l-8.21,-8.21l-8.22,8.21c-0.56,0.57 -1.31,0.85 -2.05,0.85s-1.48,-0.28 -2.05,-0.85c-1.13,-1.13 -1.13,-2.97 0,-4.1l8.22,-8.21l-8.22,-8.22zm82.64,314.41c1.62,1.61 1.62,4.2 0,5.81c-0.79,0.81 -1.85,1.2 -2.9,1.2s-2.1,-0.39 -2.9,-1.2l-11.66,-11.65l-11.65,11.65c-0.8,0.81 -1.86,1.2 -2.9,1.2s-2.11,-0.39 -2.91,-1.2c-1.61,-1.61 -1.61,-4.2 0,-5.81l11.65,-11.65l-11.65,-11.65c-1.61,-1.61 -1.61,-4.21 0,-5.82c1.6,-1.6 4.21,-1.6 5.81,0l11.65,11.66l11.66,-11.66c1.6,-1.6 4.21,-1.6 5.8,0c1.62,1.61 1.62,4.21 0,5.82l-11.64,11.65l11.64,11.65zm-12.69,-83.84c-7.45,2.17 -15.24,3.49 -23.29,3.83c-1.4,0.06 -2.81,0.09 -4.23,0.09c-6.71,0 -13.23,-0.67 -19.56,-1.96l0,0c-22.37,-4.51 -41.97,-16.66 -56.01,-33.58c-14.07,-16.98 -22.52,-38.77 -22.52,-62.55c0,-27.27 11.14,-51.93 29.1,-69.71c17.71,-17.53 42.08,-28.35 68.99,-28.35c1.42,0 2.83,0.03 4.23,0.1c17.97,0.75 34.69,6.34 48.88,15.51c18.04,11.65 32.02,29.04 39.32,49.58c3.66,10.27 5.65,21.34 5.65,32.87c0,34.34 -17.64,64.54 -44.34,82.06c-8.02,5.26 -16.81,9.37 -26.22,12.11z" enable-background="new" fill="#26262a" id="svg_46" transform="matrix(1 0 0 1 0 0)"/>
 </g>
</svg>